<?xml version="1.0" standalone="no"?><!DOCTYPE svg PUBLIC "-//W3C//DTD SVG 1.1//EN" "http://www.w3.org/Graphics/SVG/1.1/DTD/svg11.dtd"><svg t="1619322012789" class="icon" viewBox="0 0 1088 1024" version="1.1" xmlns="http://www.w3.org/2000/svg" p-id="6300" xmlns:xlink="http://www.w3.org/1999/xlink" width="68" height="64"><defs><style type="text/css"></style></defs><path d="M980.288 301.76a24.576 24.576 0 0 0-24.576 24.576v573.696c0 16.576-13.44 30.016-29.952 30.016H149.696a30.016 30.016 0 0 1-30.016-30.08V124.032c0-16.576 13.44-30.016 30.016-30.016h611.712a24.576 24.576 0 0 0 0-49.152H130.496a60.032 60.032 0 0 0-59.968 60.032v814.4c0 33.088 26.88 59.968 59.968 59.968h814.4c33.152 0 60.032-26.88 60.032-60.032V326.4a24.576 24.576 0 0 0-24.64-24.576zM997.76 52.032c-9.6-9.6-25.6-9.6-38.4 0l-326.4 323.2c-9.6 9.6-9.6 25.6 0 35.2 9.6 9.6 25.6 9.6 38.4 0l326.4-323.2c9.6-9.6 9.6-25.6 0-35.2zM496 448H217.6c-16 0-25.6 12.8-25.6 25.6s12.8 25.6 25.6 25.6h278.4c16 0 25.6-12.8 25.6-25.6 0-16-12.8-25.6-25.6-25.6zM192 652.8c0 12.8 12.8 25.6 25.6 25.6h460.8c16 0 25.6-12.8 25.6-25.6s-12.8-25.6-25.6-25.6H217.6c-12.8 0-25.6 12.8-25.6 25.6z" p-id="6301"></path></svg>