<?xml version="1.0" standalone="no"?><!DOCTYPE svg PUBLIC "-//W3C//DTD SVG 1.1//EN" "http://www.w3.org/Graphics/SVG/1.1/DTD/svg11.dtd"><svg t="1626856109792" class="icon" viewBox="0 0 1024 1024" version="1.1" xmlns="http://www.w3.org/2000/svg" p-id="4063" xmlns:xlink="http://www.w3.org/1999/xlink" width="200" height="200"><defs><style type="text/css">@font-face { font-family: feedback-iconfont; src: url("//at.alicdn.com/t/font_1031158_1uhr8ri0pk5.eot?#iefix") format("embedded-opentype"), url("//at.alicdn.com/t/font_1031158_1uhr8ri0pk5.woff2") format("woff2"), url("//at.alicdn.com/t/font_1031158_1uhr8ri0pk5.woff") format("woff"), url("//at.alicdn.com/t/font_1031158_1uhr8ri0pk5.ttf") format("truetype"), url("//at.alicdn.com/t/font_1031158_1uhr8ri0pk5.svg#iconfont") format("svg"); }
</style></defs><path d="M146.285714 841.142857v73.142857h731.428572v-73.508571H182.857143L146.285714 841.142857zM768 475.428571h-109.714286a36.571429 36.571429 0 0 1-36.571428-36.571428v-17.188572a44.617143 44.617143 0 0 1 15.36-30.72 182.857143 182.857143 0 0 0-169.325715-310.857142 182.857143 182.857143 0 0 0-80.091428 311.222857 42.788571 42.788571 0 0 1 14.994286 30.354285V438.857143a36.571429 36.571429 0 0 1-36.571429 36.571428H256a109.714286 109.714286 0 0 0-109.714286 109.714286v182.857143h731.428572v-182.857143a109.714286 109.714286 0 0 0-109.714286-109.714286z m36.571429 219.428572H219.428571v-109.714286a36.571429 36.571429 0 0 1 36.571429-36.571428h109.714286a109.714286 109.714286 0 0 0 109.714285-109.714286v-17.188572a114.102857 114.102857 0 0 0-36.571428-83.748571 109.714286 109.714286 0 0 1-31.451429-109.714286A109.714286 109.714286 0 0 1 486.4 149.942857 109.714286 109.714286 0 0 1 621.714286 256a109.714286 109.714286 0 0 1-34.742857 79.725714A115.565714 115.565714 0 0 0 548.571429 420.205714V438.857143a109.714286 109.714286 0 0 0 109.714285 109.714286h109.714286a36.571429 36.571429 0 0 1 36.571429 36.571428z" p-id="4064"></path></svg>