<?xml version="1.0" standalone="no"?><!DOCTYPE svg PUBLIC "-//W3C//DTD SVG 1.1//EN" "http://www.w3.org/Graphics/SVG/1.1/DTD/svg11.dtd"><svg t="1623132488671" class="icon" viewBox="0 0 1024 1024" version="1.1" xmlns="http://www.w3.org/2000/svg" p-id="4374" xmlns:xlink="http://www.w3.org/1999/xlink" width="200" height="200"><defs><style type="text/css"></style></defs><path d="M894.1 417.4c-16 0-28.3 12.3-28.3 28.3v358.4c0 47.2-37.7 84.9-84.9 84.9H205.5c-47.2 0-84.9-37.7-84.9-84.9V304.2c0-47.2 37.7-84.9 84.9-84.9h360.3c16 0 28.3-12.3 28.3-28.3s-12.3-28.3-28.3-28.3H205.5C127.2 162.7 64 225.9 64 304.2v499.9c0 78.3 63.2 141.5 141.5 141.5h575.4c78.3 0 141.5-63.2 141.5-141.5V445.7c0-15.1-12.3-28.3-28.3-28.3z m0 0" p-id="4375"></path><path d="M932.7 120.2l-15.1-15.1c-17.9-17.9-41.5-27.4-66-27.4s-48.1 9.4-66 27.4L513 376.8l-66 66c-45.3 45.3-33 143.4-31.1 154.7l2.8 20.8 20.8 2.8c4.7 0.9 22.6 3.8 46.2 3.8 34.9 0 81.1-5.7 108.5-33l338.6-338.6c17.9-17.9 27.4-41.5 27.4-66-0.1-25.6-9.5-49.1-27.5-67.1zM553.6 552.3c-15.1 15.1-54.7 17.9-84 16-0.9-29.2 0.9-68.9 17-84.9l23.6-23.6 67.9 67.9-24.5 24.6z m338.6-339.6L620.5 484.3l-67-67 271.7-271.7c14.1-14.1 38.7-14.1 51.9 0l15.1 15.1c15.1 14.3 15.1 37.8 0 52z m0 0" p-id="4376"></path></svg>