<?xml version="1.0" standalone="no"?><!DOCTYPE svg PUBLIC "-//W3C//DTD SVG 1.1//EN" "http://www.w3.org/Graphics/SVG/1.1/DTD/svg11.dtd"><svg t="1620453314702" class="icon" viewBox="0 0 1024 1024" version="1.1" xmlns="http://www.w3.org/2000/svg" p-id="3493" xmlns:xlink="http://www.w3.org/1999/xlink" width="200" height="200"><defs><style type="text/css"></style></defs><path d="M694.19 452.48l-0.41 0.72c0.38-0.55 0.8-1.2 1.24-1.94l-0.27 0.34c-0.19 0.29-0.39 0.58-0.56 0.88zM827.4 746.43l0.61-0.58-0.66 0.61z" p-id="3494"></path><path d="M127.44 729.9c0 4.45-0.07 8.91 0 13.36 0.38 27.63 16.08 50.41 42 59.87 8.92 3.26 18.32 3.35 27.65 3.35h630.8c0.59 0 1.17 0 1.76-0.06a60.29 60.29 0 0 0 38.91-16.27c11.62-10.6 18.23-25.35 24.14-39.55 4.45-10.69 3.06-23.09 3.06-34.47V630.5a143.85 143.85 0 0 0-13-60.55C872 546.19 852.18 525.4 829.26 513a131.28 131.28 0 0 0-62.75-15.59h-33.28c-17 0-34-0.16-51-0.18 2.27-14.24 5.35-28.59 10.46-42q0.51-1 1.08-2.07c-0.23 0.34-0.44 0.63-0.64 0.91l0.4-1c0.41-0.5 0.81-1 1.21-1.52s0.54-0.78 0.77-1.19c-0.17 0.3-0.34 0.58-0.5 0.85 0.86-1.11 1.7-2.25 2.46-3.41 4.65-7.16 8.82-14.73 12.95-22.19a391.13 391.13 0 0 0 23.83-51.29c12.72-33.77 18.65-71.57 14-107.5a230.7 230.7 0 0 0-39.74-103c-11.74-16.8-24.77-33.78-41.21-46.16a289.59 289.59 0 0 0-43.81-27.58C589.75 73.12 552 62.73 514 65.42c-19 1.35-37.64 1.92-56.51 5.25-18.46 3.27-36 9.09-53.15 16.49-67.5 29.08-114 96.44-126.5 167.87-6.5 37-5.73 75.17 3.59 111.62 8.61 33.7 25.43 64.71 47.67 91.32 0.16 0.25 0.33 0.5 0.48 0.76 0.59 1 1.13 2.07 1.64 3.13 5 13.17 8 27.17 10.2 41.11h-74.77c-4.42 0-8.84-0.05-13.26 0a129.48 129.48 0 0 0-58.85 15.27c-33 17.56-58.27 52-64.56 88.9-3.23 19-2.54 37.87-2.54 57z m59 14.52h-0.07s0.03-0.02 0.06 0z m641.28 2c0.18-0.26 0.34-0.51 0.49-0.74 2.43-2.13 1.33-0.54-0.5 0.73z m0.59-0.89c3.37-5.06 1.68-1.92 0 0zM692 455.05l1.49-1.83-0.44 1.06c-1.64 2.14-2.28 2.23-1.05 0.77zM202 588.87q2.63-3.14 5.5-6c2-2 4.05-3.92 6.19-5.74l0.36-0.3c0.61-0.44 1.22-0.88 1.84-1.3a97.14 97.14 0 0 1 13-7.39 100.46 100.46 0 0 1 17.11-4.66c14.5-1.33 29.46-0.4 43.93-0.4h83.75c16.18 0 30.09-13.76 30-30-0.07-16.61-2.25-33.27-5.1-49.6-2.31-13.2-5.26-26.53-10.16-39-2.45-6.27-4.94-12.93-8.79-18.55-2.56-3.74-5.52-7-8.36-10.51-0.3-0.37-0.73-0.94-1.16-1.54l1.07 1.55c-1.16-1.68-2.45-3.27-3.64-4.93a203.89 203.89 0 0 1-20.55-35.74 209.63 209.63 0 0 1-12-44.72 241.18 241.18 0 0 1-0.22-53.78 227.59 227.59 0 0 1 13.62-49.79 215.76 215.76 0 0 1 14.42-27c2.31-3.66 4.89-7.11 7.39-10.63a27.85 27.85 0 0 1 2.05-3l0.1-0.13 0.6-0.87c-0.18 0.26-0.34 0.51-0.5 0.75 0.95-1.17 1.91-2.32 2.89-3.47q2.88-3.37 5.91-6.6a168.61 168.61 0 0 1 12.77-12.31c2-1.72 10.19-7.32 2-1.86 2.43-1.61 4.7-3.47 7.11-5.12a183.31 183.31 0 0 1 28.18-15.65 221.42 221.42 0 0 1 47.12-12.67c10.68-1.15 21.33-1.22 32-2a185.92 185.92 0 0 1 32.44 0.3 191.29 191.29 0 0 1 40.49 11.35 254.07 254.07 0 0 1 31.31 16.82q8.55 5.37 16.72 11.3 2.07 1.5 4.11 3l2 1.54q2.77 2.07-2.93-2c1.4 2.56 4.61 4.87 6.59 7.06 4.29 4.76 8.59 9.63 12.4 14.79l-2.56-3.68 2 2.61q1.42 1.93 2.82 3.9c1.85 2.61 3.65 5.27 5.4 7.95a222.18 222.18 0 0 1 16.35 29.95 189.61 189.61 0 0 1 11.2 40.34 195.57 195.57 0 0 1-0.33 42.1A237.31 237.31 0 0 1 674 364.46a418.74 418.74 0 0 1-22.77 43.79c-1.12 1.91-2.26 3.81-3.4 5.71l-1.73 2.86c1-1.16 1.73-2.09 2.32-2.82a80.5 80.5 0 0 0-6.24 8.49c-3.63 6.3-6.22 13.33-8.54 20.21a253.91 253.91 0 0 0-9.28 39c-2.54 15.06-4.79 30.48-4.86 45.8-0.07 16.23 13.82 30 30 30h108.6c6.44 0 12.87-0.09 19.29 0.44a98.76 98.76 0 0 1 16.88 4.62 97.25 97.25 0 0 1 13 7.39c0.62 0.42 1.23 0.86 1.83 1.29l0.36 0.31c2.15 1.82 4.21 3.74 6.19 5.74s3.76 4 5.51 6c0.59 0.84 1.18 1.67 1.74 2.51a99.77 99.77 0 0 1 7.31 13 105.75 105.75 0 0 1 5 18.35c1.3 13.81 0.48 28 0.48 41.84v73a132.86 132.86 0 0 1-7.57 13.58 0.93 0.93 0 0 1-0.14 0.14l0.1-0.08c-0.14 0.23-0.29 0.46-0.44 0.69H266.21c-25.19 0-50.38 0.23-75.56 0h-1.38l-1.05-0.29-0.29-0.16s-0.05-0.09-0.08-0.14c-0.11-0.39-0.21-0.79-0.31-1.19-0.17-3.82 0-7.68 0-11.49v-91c0-6.56 0-13.08 0.53-19.6a106.19 106.19 0 0 1 5-18.13 101.35 101.35 0 0 1 7.31-13c0.48-0.79 1.07-1.62 1.62-2.45z m-16.58 155.52z" p-id="3495"></path><path d="M372.58 185.43l-0.1 0.12c-0.71 1-1.42 2.09-2.15 3.12a26.84 26.84 0 0 0 2.25-3.24zM370.2 413.76c-3-4.34-1.48-2 0 0zM912.37 928.91c-0.73-16.27-13.2-30-30-30H171.86c-9.65 0-19.31-0.14-29 0h-1.25c-15.71 0-30.75 13.81-30 30s13.2 30 30 30h710.53c9.65 0 19.31 0.14 29 0h1.25c15.66 0.03 30.7-13.78 29.98-30z" p-id="3496"></path></svg>