<?xml version="1.0" standalone="no"?><!DOCTYPE svg PUBLIC "-//W3C//DTD SVG 1.1//EN" "http://www.w3.org/Graphics/SVG/1.1/DTD/svg11.dtd"><svg t="1620453932936" class="icon" viewBox="0 0 1024 1024" version="1.1" xmlns="http://www.w3.org/2000/svg" p-id="5852" xmlns:xlink="http://www.w3.org/1999/xlink" width="200" height="200"><defs><style type="text/css"></style></defs><path d="M915.222145 1024H108.777855a43.936332 43.936332 0 0 1-43.936333-43.936332V174.328028a43.936332 43.936332 0 0 1 43.936333-43.936332h136.060899v165.824221h533.613841V130.391696H915.222145a43.936332 43.936332 0 0 1 43.936333 43.936332v805.73564a43.936332 43.936332 0 0 1-43.936333 43.936332zM108.777855 172.910727v807.152941h807.152941L915.222145 174.328028h-94.959169v164.40692H202.319723V172.910727z" fill="#8A8A8A" p-id="5853"></path><path d="M717.508651 246.610381H305.074048V82.20346h66.613149V55.983391A55.983391 55.983391 0 0 1 427.670588 0h170.076125a55.983391 55.983391 0 0 1 55.27474 55.983391v26.220069h64.487198zM348.30173 204.091349h326.687889V124.722491H610.502422v-70.865052A13.46436 13.46436 0 0 0 597.746713 42.519031h-170.076125a13.46436 13.46436 0 0 0-13.46436 13.46436v70.865052H348.30173z" fill="#8A8A8A" p-id="5854"></path><path d="M511.291349 187.083737a63.778547 63.778547 0 1 1 63.778547-63.778547 63.778547 63.778547 0 0 1-63.778547 63.778547z m0-92.124567a28.346021 28.346021 0 1 0 28.346021 28.34602 28.346021 28.346021 0 0 0-28.346021-28.34602zM802.546713 459.914187l-54.56609-41.810381-282.042907 356.451211-199.130796-154.485813-46.770934 55.983391 185.666436 147.399308 66.613149 53.148789v-0.70865 0.70865l53.148789-66.613149 277.082353-350.073356z" fill="#8A8A8A" p-id="5855"></path></svg>