<?xml version="1.0" standalone="no"?><!DOCTYPE svg PUBLIC "-//W3C//DTD SVG 1.1//EN" "http://www.w3.org/Graphics/SVG/1.1/DTD/svg11.dtd"><svg t="1620455295095" class="icon" viewBox="0 0 1024 1024" version="1.1" xmlns="http://www.w3.org/2000/svg" p-id="8852" xmlns:xlink="http://www.w3.org/1999/xlink" width="200" height="200"><defs><style type="text/css"></style></defs><path d="M712.72 419.09L481.11 650.71 376.51 546.1c-13.29-13.29-34.85-13.29-48.14 0s-13.29 34.85 0 48.14L456.8 722.68c6.7 6.7 15.49 10 24.27 9.95 8.81 0.07 17.63-3.23 24.35-9.94l255.45-255.45c13.29-13.29 13.29-34.85 0-48.14s-34.85-13.3-48.15-0.01z" fill="#ffffff" p-id="8853"></path><path d="M827.91 129.65H701.88v-27.11c0-24.08-19.6-43.68-43.68-43.68H365.99c-24.08 0-43.66 19.6-43.66 43.68v27.11H196.28c-40.91 0-74.19 33.28-74.19 74.19V891.2c0 40.91 33.28 74.19 74.19 74.19h631.63c40.91 0 74.19-33.28 74.19-74.19V203.84c0-40.91-33.28-74.19-74.19-74.19z m-441.84-7.04h252.07v72.49H386.07v-72.49zM838.36 891.2c0 5.76-4.69 10.45-10.45 10.45H196.28c-5.76 0-10.45-4.69-10.45-10.45V203.84c0-5.76 4.69-10.45 10.45-10.45h126.05v21.78c0 24.08 19.59 43.68 43.66 43.68H658.2c24.08 0 43.68-19.6 43.68-43.68v-21.78h126.04c5.76 0 10.45 4.69 10.45 10.45V891.2z" fill="#ffffff" p-id="8854"></path></svg>