<?xml version="1.0" standalone="no"?><!DOCTYPE svg PUBLIC "-//W3C//DTD SVG 1.1//EN" "http://www.w3.org/Graphics/SVG/1.1/DTD/svg11.dtd"><svg t="1621488852402" class="icon" viewBox="0 0 1024 1024" version="1.1" xmlns="http://www.w3.org/2000/svg" p-id="1891" xmlns:xlink="http://www.w3.org/1999/xlink" width="200" height="200"><defs><style type="text/css"></style></defs><path d="M742.4 788.48c0 25.6-20.48 51.2-51.2 51.2h-358.4c-25.6 0-51.2-20.48-51.2-51.2V261.12h460.8v527.36z m-358.4-614.4c0-5.12 5.12-10.24 10.24-10.24h240.64c5.12 0 10.24 5.12 10.24 10.24V204.8H384v-30.72z m506.88 30.72h-189.44v-30.72c0-35.84-30.72-71.68-71.68-71.68H394.24c-40.96 0-71.68 30.72-71.68 71.68V204.8H133.12c-15.36 0-30.72 10.24-30.72 25.6s15.36 30.72 30.72 30.72h87.04v527.36c0 61.44 51.2 107.52 107.52 107.52h358.4c61.44 0 107.52-51.2 107.52-107.52V261.12h87.04c15.36 0 30.72-15.36 30.72-30.72s-5.12-25.6-20.48-25.6zM512 752.64c15.36 0 30.72-15.36 30.72-30.72V399.36c0-15.36-15.36-30.72-30.72-30.72s-30.72 15.36-30.72 30.72V716.8c0 20.48 15.36 35.84 30.72 35.84m-138.24 0c15.36 0 30.72-15.36 30.72-30.72V399.36c0-15.36-15.36-30.72-30.72-30.72s-30.72 15.36-30.72 30.72V716.8c0 20.48 10.24 35.84 30.72 35.84m276.48 0c15.36 0 30.72-15.36 30.72-30.72V399.36c0-15.36-15.36-30.72-30.72-30.72s-30.72 15.36-30.72 30.72V716.8c0 20.48 15.36 35.84 30.72 35.84" p-id="1892"></path></svg>