<?xml version="1.0" standalone="no"?><!DOCTYPE svg PUBLIC "-//W3C//DTD SVG 1.1//EN" "http://www.w3.org/Graphics/SVG/1.1/DTD/svg11.dtd"><svg t="1619162825120" class="icon" viewBox="0 0 1024 1024" version="1.1" xmlns="http://www.w3.org/2000/svg" p-id="7516" xmlns:xlink="http://www.w3.org/1999/xlink" width="64" height="64"><defs><style type="text/css"></style></defs><path d="M955.52 488a794.24 794.24 0 0 0-134.4-165.44l-45.76 45.76A773.76 773.76 0 0 1 896 512c-28.8 45.12-178.56 264-384 264a311.36 311.36 0 0 1-119.68-24.64L343.68 800A385.92 385.92 0 0 0 512 840c264.32 0 436.48-291.52 443.52-304l4.48-7.36v-32z" p-id="7517"></path><path d="M528.32 615.36l-60.16 60.16a148.48 148.48 0 0 0 41.6 5.76A167.04 167.04 0 0 0 672 512a179.84 179.84 0 0 0-3.52-35.2l-64 64a102.08 102.08 0 0 1-76.16 74.56zM408.96 644.48l45.44-45.44 141.12-141.12 46.4-46.4 84.16-84.16 46.08-46.08 98.56-98.56-45.44-45.44-107.2 107.2a320 320 0 0 0-29.12-16q-15.04-7.68-32-14.4A380.16 380.16 0 0 0 512 184c-264.32 0-436.48 291.52-443.52 304l-4.48 7.36v32l4.48 7.36a795.2 795.2 0 0 0 118.4 149.76c7.04 7.36 15.04 14.72 23.04 21.76s15.68 14.08 24 21.12l-112.64 113.92 45.44 45.44L288 768l46.4-46.4z m7.04-98.88a105.6 105.6 0 0 1-5.76-35.2 19.52 19.52 0 0 1 0-4.48 102.08 102.08 0 0 1 98.24-102.72h4.16a80.64 80.64 0 0 1 35.84 9.28L416 545.6z m-136.32 137.28L256 661.76c-8.32-7.04-16-14.4-23.36-21.76A775.04 775.04 0 0 1 128 512c28.8-45.12 178.56-264 384-264a310.08 310.08 0 0 1 96 16q16.64 5.76 32 12.48c10.24 4.8 20.16 9.92 30.08 15.04l-74.56 74.56a153.28 153.28 0 0 0-29.44-15.68 135.68 135.68 0 0 0-35.52-9.6 161.92 161.92 0 0 0-21.76-1.6 167.36 167.36 0 0 0-161.6 172.8v14.08a186.24 186.24 0 0 0 7.04 38.08 174.4 174.4 0 0 0 13.44 32l-88 86.72z" p-id="7518"></path></svg>