<?xml version="1.0" standalone="no"?><!DOCTYPE svg PUBLIC "-//W3C//DTD SVG 1.1//EN" "http://www.w3.org/Graphics/SVG/1.1/DTD/svg11.dtd"><svg t="1619162811497" class="icon" viewBox="0 0 1024 1024" version="1.1" xmlns="http://www.w3.org/2000/svg" p-id="1694" xmlns:xlink="http://www.w3.org/1999/xlink" width="64" height="64"><defs><style type="text/css"></style></defs><path d="M955.84 488c-7.36-12.48-179.52-304-443.84-304s-436.48 291.52-443.84 304l-4.16 7.36v32l4.16 7.36c7.36 12.48 179.52 304 443.84 304s436.48-291.52 443.84-304l4.16-7.36v-32z m-443.84 288c-204.8 0-354.56-218.88-384-264 28.8-45.12 178.56-264 384-264S866.56 466.88 896 512c-29.44 45.12-179.2 264-384 264z" p-id="1695"></path><path d="M509.76 339.2a167.36 167.36 0 0 0-162.56 172.8 167.04 167.04 0 0 0 162.56 170.88A167.04 167.04 0 0 0 672 512a167.36 167.36 0 0 0-162.24-172.8z m0 278.08A103.04 103.04 0 0 1 411.2 512a103.04 103.04 0 0 1 98.56-107.2A103.04 103.04 0 0 1 608 512a103.04 103.04 0 0 1-98.24 105.28z" p-id="1696"></path></svg>