<?xml version="1.0" standalone="no"?><!DOCTYPE svg PUBLIC "-//W3C//DTD SVG 1.1//EN" "http://www.w3.org/Graphics/SVG/1.1/DTD/svg11.dtd"><svg t="1619679159692" class="icon" viewBox="0 0 1024 1024" version="1.1" xmlns="http://www.w3.org/2000/svg" p-id="11266" xmlns:xlink="http://www.w3.org/1999/xlink" width="200" height="200"><defs><style type="text/css"></style></defs><path d="M121.009935 211.837778l168.945174 0.396244v48.856736c0 15.452477 12.504711 27.957189 27.957189 27.957189s27.957189-12.504711 27.957189-27.957189v-48.725679l214.675988 0.502728v48.222951c0 15.452477 12.503688 27.957189 27.957189 27.957189 15.452477 0 27.957189-12.504711 27.957188-27.957189v-48.091894l145.301615 0.340954v243.807573h55.914377V213.339818c0-31.670821-25.745596-57.416417-57.416417-57.416417H616.459852V101.373862c0-15.439167-12.504711-27.957189-27.957188-27.957189-15.453501 0-27.957189 12.518022-27.957189 27.957189v54.549539H345.869487V101.373862c0-15.439167-12.504711-27.957189-27.957189-27.957189s-27.957189 12.518022-27.957189 27.957189v54.549539H121.009935c-31.670821 0-57.416417 25.745596-57.416417 57.416417v539.760603c0 31.669797 25.745596 57.443038 57.416417 57.443038h338.190347v-55.914377l-339.692387-1.528661 1.50204-541.262643z" fill="#3E3A39" p-id="11267"></path><path d="M256.158702 411.034668m-43.208984 0a43.208985 43.208985 0 1 0 86.417969 0 43.208985 43.208985 0 1 0-86.417969 0Z" fill="#3E3A39" p-id="11268"></path><path d="M446.91161 411.034668m-43.208985 0a43.208985 43.208985 0 1 0 86.417969 0 43.208985 43.208985 0 1 0-86.417969 0Z" fill="#3E3A39" p-id="11269"></path><path d="M632.07308 411.034668m-43.208985 0a43.208985 43.208985 0 1 0 86.417969 0 43.208985 43.208985 0 1 0-86.417969 0Z" fill="#3E3A39" p-id="11270"></path><path d="M256.158702 579.685987m-43.208984 0a43.208985 43.208985 0 1 0 86.417969 0 43.208985 43.208985 0 1 0-86.417969 0Z" fill="#3E3A39" p-id="11271"></path><path d="M446.91161 579.685987m-43.208985 0a43.208985 43.208985 0 1 0 86.417969 0 43.208985 43.208985 0 1 0-86.417969 0Z" fill="#3E3A39" p-id="11272"></path><path d="M739.83701 517.48393c-119.474107 0-216.668469 97.195386-216.668469 216.668469s97.195386 216.668469 216.668469 216.668469S956.506503 853.626506 956.506503 734.152399s-97.195386-216.668469-216.669493-216.668469z m0 377.42256c-88.650039 0-160.754092-72.105076-160.754091-160.754091s72.105076-160.754092 160.754091-160.754092S900.592126 645.503384 900.592126 734.152399s-72.105076 160.754092-160.755116 160.754091z" fill="#3E3A39" p-id="11273"></path><path d="M821.60654 706.19521H767.794199v-63.722527c0-15.452477-12.504711-27.957189-27.957189-27.957189s-27.957189 12.504711-27.957189 27.957189v91.68074c0 15.452477 12.504711 27.957189 27.957189 27.957189 0.21092 0 0.418769-0.011263 0.627642-0.016383 0.209896 0.004096 0.417745 0.016382 0.627642 0.016383h80.513222c15.453501 0 27.957189-12.504711 27.957189-27.957189 0.002048-15.453501-12.502664-27.958213-27.956165-27.958213z" fill="#3E3A39" p-id="11274"></path></svg>