<?xml version="1.0" standalone="no"?><!DOCTYPE svg PUBLIC "-//W3C//DTD SVG 1.1//EN" "http://www.w3.org/Graphics/SVG/1.1/DTD/svg11.dtd"><svg t="1619158160079" class="icon" viewBox="0 0 1024 1024" version="1.1" xmlns="http://www.w3.org/2000/svg" p-id="2088" xmlns:xlink="http://www.w3.org/1999/xlink" width="64" height="64"><defs><style type="text/css"></style></defs><path d="M109.714286 73.142857c-21.942857 0-36.571429 14.628571-36.571429 36.571429v804.571428c0 21.942857 14.628571 36.571429 36.571429 36.571429h804.571428c21.942857 0 36.571429-14.628571 36.571429-36.571429v-804.571428c0-21.942857-14.628571-36.571429-36.571429-36.571429h-804.571428z m0-73.142857h804.571428c58.514286 0 109.714286 51.2 109.714286 109.714286v804.571428c0 58.514286-51.2 109.714286-109.714286 109.714286h-804.571428C51.2 1024 0 972.8 0 914.285714v-804.571428C0 51.2 51.2 0 109.714286 0z m438.857143 292.571429h219.428571c21.942857 0 36.571429 14.628571 36.571429 36.571428s-14.628571 36.571429-36.571429 36.571429h-219.428571c-21.942857 0-36.571429-14.628571-36.571429-36.571429s14.628571-36.571429 36.571429-36.571428z m-219.428572 438.857142c21.942857 0 36.571429-14.628571 36.571429-36.571428S351.085714 658.285714 329.142857 658.285714s-36.571429 14.628571-36.571428 36.571429 14.628571 36.571429 36.571428 36.571428z m0 73.142858C270.628571 804.571429 219.428571 753.371429 219.428571 694.857143S270.628571 585.142857 329.142857 585.142857 438.857143 636.342857 438.857143 694.857143 387.657143 804.571429 329.142857 804.571429z m-7.314286-446.171429L241.371429 277.942857c-14.628571-14.628571-36.571429-14.628571-51.2 0-14.628571 14.628571-14.628571 36.571429 0 51.2L292.571429 431.542857c7.314286 7.314286 21.942857 14.628571 29.257142 14.628572s21.942857 0 29.257143-7.314286l153.6-153.6c14.628571-14.628571 14.628571-36.571429 0-51.2-14.628571-14.628571-36.571429-14.628571-51.2 0L321.828571 358.4zM548.571429 658.285714h219.428571c21.942857 0 36.571429 14.628571 36.571429 36.571429s-14.628571 36.571429-36.571429 36.571428h-219.428571c-21.942857 0-36.571429-14.628571-36.571429-36.571428s14.628571-36.571429 36.571429-36.571429z" p-id="2089"></path></svg>