<?xml version="1.0" standalone="no"?><!DOCTYPE svg PUBLIC "-//W3C//DTD SVG 1.1//EN" "http://www.w3.org/Graphics/SVG/1.1/DTD/svg11.dtd"><svg t="1619679500324" class="icon" viewBox="0 0 1024 1024" version="1.1" xmlns="http://www.w3.org/2000/svg" p-id="16022" xmlns:xlink="http://www.w3.org/1999/xlink" width="200" height="200"><defs><style type="text/css"></style></defs><path d="M799.33855801 961.96250762H226.64877646C132.68160635 961.96250762 62.03749238 886.18132198 62.03749238 792.25164864V280.19431513c0-93.96717012 70.64411396-169.71085898 164.61128408-166.71110976a30.37246963 30.37246963 0 0 1 30.33497198 30.37246963c0 15.03624727-12.1489875 33.82218193-30.33497198 33.82218193-57.59520117 0-101.01658271 44.92125703-101.01658359 102.5164582v509.02008662c0 57.59520117 43.42138242 108.51595839 101.01658359 108.51595841h572.68978154c57.59520117 0 98.20431739-50.92075723 98.20431739-108.51595841V277.15706739c0-60.59495127-40.60911621-102.47896143-98.20431739-102.47896056h-18.18598446c-15.18623438 0-30.33497198-15.67369424-30.33497286-33.85967871a30.37246963 30.37246963 0 0 1 30.33497286-30.33497285h18.18598446c90.96742002 0 162.81143437 75.74368886 162.69894317 169.71085986v512.0573335c0 93.92967334-68.73177305 169.71085898-162.69894317 169.71085898zM687.29789375 207.45037636c-15.18623438 0-30.33497198-9.1492374-30.33497285-24.22298232V86.26047383c0-12.1489875 12.1489875-24.22298145 30.33497285-24.22298145 18.18598448 0 30.33497198 9.03674707 30.33497198 24.22298145v96.96692021c0 12.03649717-12.1489875 24.22298145-30.33497198 24.22298233z m-16.87359375 127.30189219v427.12691046c0 9.37421895-6.22448174 15.56120302-15.56120391 15.5612039h-15.5986998c-9.33672217 0-15.56120302-6.18698408-15.5612039-15.5612039v-28.01016563H399.17190078v28.01016563c0 9.37421895-6.22448174 15.56120302-15.56120302 15.5612039h-15.56120303c-9.37421895 0-15.59870068-6.18698408-15.59870069-15.5612039V334.75226855c0-9.33672217 6.22448174-15.59870068 15.59870069-15.5986998h286.81360136c9.33672217 0 15.56120302 6.26197852 15.56120391 15.59869981zM623.59070205 374.01149727H405.4338793v127.33938984h218.15682275V374.01149727z m0 175.74785683H405.4338793v133.33888916h218.15682275v-133.33888916zM596.36797051 174.07815664H414.5831167c-12.18648427 0-24.22298145-12.03649717-27.26022832-30.33497197 0-15.18623438 12.07399394-30.33497198 27.26022832-30.33497285h181.78485381c15.07374404 0 27.22273154 12.1489875 27.22273154 30.33497285 0 15.1487376-12.07399394 30.33497198-27.22273154 30.33497197z m-272.75227383 33.37221972c-15.18623438 0-30.25997842-9.1492374-30.33497197-24.22298232V86.26047383c0-12.07399394 12.1489875-24.22298145 30.33497196-24.22298145 15.18623438 0 30.33497198 9.03674707 30.33497286 24.22298145v96.96692021c0 12.03649717-12.1489875 24.22298145-30.33497286 24.22298233z" p-id="16023"></path></svg>