<?xml version="1.0" standalone="no"?><!DOCTYPE svg PUBLIC "-//W3C//DTD SVG 1.1//EN" "http://www.w3.org/Graphics/SVG/1.1/DTD/svg11.dtd"><svg t="1619158118955" class="icon" viewBox="0 0 1024 1024" version="1.1" xmlns="http://www.w3.org/2000/svg" p-id="1237" xmlns:xlink="http://www.w3.org/1999/xlink" width="64" height="64"><defs><style type="text/css"></style></defs><path d="M778 908.2H596.7c-26.2 0-47.6-21.4-47.6-47.6V678.5h-72v182.1c0 26.2-21.4 47.6-47.6 47.6H245.7c-26.2 0-47.6-21.4-47.6-47.6V561.8h-81.5c-20.1 0-37.6-12.2-44.6-31-7-18.7-1.7-39.3 13.3-52.4l387.7-346 0.2-0.2c25.6-22.1 63.6-21.3 88.4 1.7l380.1 345.6 0.2 0.2c14.3 13.5 18.9 34 11.6 52.2-7.2 18.2-24.6 30-44.2 30h-83.7v298.7c0 26.2-21.4 47.6-47.6 47.6z m-170.9-58h160.5V503.9h114.7l-360-327.3-0.1-0.1c-3.1-2.9-7.8-3-10.9-0.4L144 503.8h112.1v346.4h163V668.1c0-26.2 21.4-47.6 47.6-47.6h92.8c26.2 0 47.6 21.4 47.6 47.6v182.1z" p-id="1238"></path></svg>