<?xml version="1.0" standalone="no"?><!DOCTYPE svg PUBLIC "-//W3C//DTD SVG 1.1//EN" "http://www.w3.org/Graphics/SVG/1.1/DTD/svg11.dtd"><svg t="1619320359922" class="icon" viewBox="0 0 1024 1024" version="1.1" xmlns="http://www.w3.org/2000/svg" p-id="1782" xmlns:xlink="http://www.w3.org/1999/xlink" width="64" height="64"><defs><style type="text/css"></style></defs><path d="M207.74 430.46A315 315 0 0 0 553.1 824.42a45 45 0 0 1 11.76 89.22A405 405 0 0 1 120.8 407.24l-53.7-14.4a12 12 0 0 1-5.88-19.62l149.22-168.24a12 12 0 0 1 20.76 5.52l45.06 220.38a12 12 0 0 1-14.82 13.98l-53.7-14.4zM816.2 593.6a315 315 0 0 0-345.36-393.96 45 45 0 1 1-11.76-89.22 405 405 0 0 1 444.06 506.4l53.7 14.4a12 12 0 0 1 5.88 19.62L813.5 819.08a12 12 0 0 1-20.76-5.52l-45.06-220.38A12 12 0 0 1 762.5 579.2l53.7 14.4z" fill="#515151" p-id="1783"></path></svg>