<?xml version="1.0" standalone="no"?><!DOCTYPE svg PUBLIC "-//W3C//DTD SVG 1.1//EN" "http://www.w3.org/Graphics/SVG/1.1/DTD/svg11.dtd"><svg t="1620715167121" class="icon" viewBox="0 0 1024 1024" version="1.1" xmlns="http://www.w3.org/2000/svg" p-id="3369" xmlns:xlink="http://www.w3.org/1999/xlink" width="200" height="200"><defs><style type="text/css"></style></defs><path d="M751.06 339.677c17.586 17.585 17.586 45.22 0 62.841L469.657 684.615a45.155 45.155 0 0 1-62.841 0l-2.185-2.55L273.012 549.83c-17.585-16.93-17.585-44.929-0.619-62.187s45.22-17.294 62.186 0l103.657 103.329 250.056-251.258c17.585-17.258 45.511-17.258 62.805 0zM961.105 512c0 248.054-201.087 449.104-449.104 449.104S62.896 760.054 62.896 512 263.983 62.896 512 62.896c248.054 0 449.14 201.087 449.14 449.104z m-83.158 0c0-202.106-163.84-365.946-365.982-365.946S146.054 309.894 146.054 512s163.804 365.946 365.91 365.946S877.946 714.106 877.946 512z" p-id="3370" fill="#00cc00"></path></svg>