<?xml version="1.0" standalone="no"?><!DOCTYPE svg PUBLIC "-//W3C//DTD SVG 1.1//EN" "http://www.w3.org/Graphics/SVG/1.1/DTD/svg11.dtd"><svg t="1619345663089" class="icon" viewBox="0 0 1024 1024" version="1.1" xmlns="http://www.w3.org/2000/svg" p-id="7340" xmlns:xlink="http://www.w3.org/1999/xlink" width="64" height="64"><defs><style type="text/css"></style></defs><path d="M512.040944 1024c-282.709741 0-511.915609-229.205868-511.915609-512 0-282.794132 229.205868-512 512-512C794.835076 0.084391 1024.040944 229.290259 1024.040944 512 1024.040944 794.794132 794.835076 1024 512.040944 1024z m0-80.424592c238.320092 0 431.491017-193.170925 431.491017-431.491017 0-238.320092-193.170925-431.491017-431.491017-431.491017C273.720851 80.508983 80.549927 273.679908 80.549927 512s193.170925 431.575408 431.491017 431.575408z m0-21.941652" p-id="7341"></path><path d="M517.695139 734.538981c-28.270974 0-51.140926-22.869952-51.140927-51.140926V335.032141c0-28.270974 22.869952-51.140926 51.140927-51.140926 28.270974 0 51.140926 22.869952 51.140926 51.140926v348.365914c0 28.270974-22.869952 51.140926-51.140926 51.140926z" p-id="7342"></path><path d="M695.844471 556.389649H339.545806c-26.076809 0-47.174551-21.097742-47.174551-47.174551s21.097742-47.174551 47.174551-47.174551h356.383056c26.076809 0 47.174551 21.097742 47.174551 47.174551a47.267381 47.267381 0 0 1-47.258942 47.174551z" p-id="7343"></path></svg>