<?xml version="1.0" standalone="no"?><!DOCTYPE svg PUBLIC "-//W3C//DTD SVG 1.1//EN" "http://www.w3.org/Graphics/SVG/1.1/DTD/svg11.dtd"><svg t="1622689234849" class="icon" viewBox="0 0 1024 1024" version="1.1" xmlns="http://www.w3.org/2000/svg" p-id="10783" xmlns:xlink="http://www.w3.org/1999/xlink" width="200" height="200"><defs><style type="text/css"></style></defs><path d="M908.901638 95.850027c0 16.859904-13.667402 30.528209-30.528209 30.528209H146.500483c-16.860205 0-30.528209-13.668305-30.528209-30.528209 0-16.860205 13.668004-30.528209 30.528209-30.528209h731.872946c16.860807 0 30.528209 13.668004 30.528209 30.528209zM906.141124 215.520245c0 16.859603-13.667703 30.528209-30.528209 30.528209H143.741776c-16.860205 0-30.528209-13.668305-30.528209-30.528209 0-16.860205 13.668004-30.528209 30.528209-30.528209H875.612614c16.860506 0 30.52851 13.668004 30.52851 30.528209z" fill="#ffffff" p-id="10784"></path><path d="M376.636398 501.624142c-13.178517 10.516142-28.081678 13.753197-33.286916 7.230017L117.391365 225.692602c-5.205239-6.522579 1.258638-20.336586 14.436853-30.852727 13.178517-10.515841 28.081979-13.752595 33.286916-7.229716l225.958419 283.161556c5.205239 6.523181-1.258939 20.335984-14.437155 30.852427zM645.096188 501.624142c13.178818 10.516142 28.081678 13.753197 33.286615 7.230017l225.958418-283.161557c5.204938-6.522579-1.258337-20.336586-14.436552-30.852727-13.178818-10.515841-28.081979-13.752595-33.287218-7.229716l-225.957816 283.161556c-5.20554 6.523181 1.258939 20.335984 14.436553 30.852427z" fill="#ffffff" p-id="10785"></path><path d="M659.386737 975.294246c-16.859603 0-30.527908-8.959176-30.527908-20.010562V475.578381c0-11.051085 13.668305-20.010261 30.527908-20.010262 16.861108 0 30.528209 8.959176 30.528209 20.010262v479.705604c0 11.051386-13.668305 20.010261-30.528209 20.010261zM360.929467 722.512186c-16.859603 0-30.528209-4.479738-30.528209-10.004679v-239.852802c0-5.525844 13.668606-10.00498 30.528209-10.00498 16.860506 0 30.528209 4.479136 30.528209 10.00498v239.852802c0 5.524941-13.668305 10.004679-30.528209 10.004679z" fill="#ffffff" p-id="10786"></path><path d="M531.216425 872.393621c-11.921686 11.921686-24.754311 18.419278-28.661174 14.512113l-169.602399-169.602399c-3.907165-3.907165 2.590126-16.739489 14.512113-28.660874 11.922288-11.922288 24.754009-18.41988 28.661174-14.511812l169.601797 169.602098c3.907767 3.907165-2.589825 16.738887-14.511511 28.660874zM553.210824 385.958926c-7.071972 7.071671-14.2183 11.392161-15.961608 9.648853l-75.670583-75.670583c-1.743609-1.743609 2.576881-8.889937 9.648552-15.961608 7.072574-7.072273 14.218601-11.392161 15.961909-9.648552l75.670884 75.670583c1.742706 1.742706-2.577483 8.889335-9.649154 15.961307z" fill="#ffffff" p-id="10787"></path><path d="M403.144553 399.412591c-7.071671-7.07137-11.39186-14.217999-9.648251-15.961307l75.670282-75.670583c1.743609-1.743308 8.889937 2.577182 15.961307 9.648552 7.071972 7.073176 11.392763 14.218902 9.648853 15.96221l-75.669981 75.670884c-1.743609 1.742104-8.890238-2.577784-15.96221-9.649756zM528.562479 386.666665c-7.071972-7.071671-11.392462-14.217999-9.649154-15.961608l75.670282-75.670884c1.743308-1.743308 8.890238 2.577182 15.961608 9.648853 7.071972 7.072875 11.392763 14.218902 9.648552 15.96221L544.523786 396.315819c-1.743308 1.743007-8.889335-2.577182-15.961307-9.649154z" fill="#ffffff" p-id="10788"></path></svg>