<?xml version="1.0" standalone="no"?><!DOCTYPE svg PUBLIC "-//W3C//DTD SVG 1.1//EN" "http://www.w3.org/Graphics/SVG/1.1/DTD/svg11.dtd"><svg t="1620373920725" class="icon" viewBox="0 0 1024 1024" version="1.1" xmlns="http://www.w3.org/2000/svg" p-id="2680" xmlns:xlink="http://www.w3.org/1999/xlink" width="200" height="200"><defs><style type="text/css"></style></defs><path d="M879.5 157.626h-735c-28.711 0-52.5 23.797-52.5 52.5v603.75c0 28.71 23.789 52.5 52.5 52.5h735c28.712 0 52.501-23.788 52.501-52.5v-603.75c-0.001-28.703-23.79-52.5-52.5-52.5z m0 656.25h-735V659.66l210.823-204.255 217.384 216.56c9.02 10.66 23.788 9.846 36.086 0.824l95.978-86.956 172.267 178.004c0.823 0 1.638 0.823 2.462 1.646v48.393z m0-123.043L725.285 532.509c-9.845-9.022-23.789-10.66-34.457-1.637l-99.255 86.134-216.569-214.924c-4.922-5.746-11.482-9.022-18.866-9.845-7.383-0.815-13.944 1.638-19.68 7.383L144.5 585.832V210.125h735v480.708zM695.75 420.125c28.711 0 52.5-22.965 52.5-52.5 2.462-44.294-59.884-71.367-89.418-36.91-34.449 30.35-7.375 91.872 36.918 89.41z" p-id="2681"></path></svg>