<?xml version="1.0" standalone="no"?><!DOCTYPE svg PUBLIC "-//W3C//DTD SVG 1.1//EN" "http://www.w3.org/Graphics/SVG/1.1/DTD/svg11.dtd"><svg t="1619322040893" class="icon" viewBox="0 0 1024 1024" version="1.1" xmlns="http://www.w3.org/2000/svg" p-id="6548" xmlns:xlink="http://www.w3.org/1999/xlink" width="64" height="64"><defs><style type="text/css"></style></defs><path d="M608.9 288H225.6c-17.6 0-31.9-14.3-31.9-32s14.3-32 31.9-32H609c17.6 0 31.9 14.3 31.9 32s-14.3 32-32 32zM724 714.1l19 12c-7 9.4-14.2 18.4-21.4 27.1l18.5 12.3-15.8 19.8c-9.5-7.5-18.6-14.5-27.2-21V831h-26.4v-73c-7 7-14.4 14.2-22.3 21.5-2.5-10.1-5.4-19.7-8.6-28.7 18.3-14.7 33.7-30.4 46.4-47h-42.8v-24.7h34.1c-5.4-8-11.8-16.9-19.3-26.4l21.9-12.4c8.6 10.1 16.2 19.8 22.6 28.9l-16.7 9.9h31v22.8c-5.8 8.7-12.4 17.7-20 26.9v8.9c2.7 1.6 5.3 3.2 7.8 4.8 6.8-9.4 13.2-18.9 19.2-28.4z m62.9-13.9c16.6 14.5 31.6 28.3 45.1 41.6l-20.7 20.5c-10.7-12-21.9-24-33.7-35.9v104.4H750V643.4h27.6v65.1l9.3-8.3zM608.9 480H225.6c-17.6 0-31.9-14.3-31.9-32s14.3-32 31.9-32H609c17.6 0 31.9 14.3 31.9 32s-14.3 32-32 32zM417.3 672H225.6c-17.6 0-31.9-14.3-31.9-32s14.3-32 31.9-32h191.7c17.6 0 31.9 14.3 31.9 32s-14.3 32-31.9 32z" p-id="6549"></path><path d="M736.6 576c42.6 0 82.7 16.6 112.8 46.9 30.1 30.2 46.7 70.4 46.7 113.1s-16.6 82.9-46.7 113.1c-30.1 30.2-70.2 46.9-112.8 46.9-42.6 0-82.7-16.6-112.8-46.9-30.1-30.2-46.7-70.4-46.7-113.1s16.6-82.9 46.7-113.1C653.9 592.6 694 576 736.6 576m0-64c-123.4 0-223.4 100.3-223.4 224s100 224 223.4 224S960 859.7 960 736 860 512 736.6 512z" p-id="6550"></path><path d="M159.7 832c-17.6 0-31.9-14.3-31.9-32V160c0-17.7 14.3-32 31.9-32h513.6c17.6 0 31.9 14.3 31.9 32v256c0 17.7 14.3 32 31.9 32 17.6 0 31.9-14.3 31.9-32V128c0-35.3-28.6-64-63.8-64H127.8C92.6 64 64 92.7 64 128v704c0 35.3 28.6 64 63.8 64h353.5c17.6 0 31.9-14.3 31.9-32s-14.3-32-31.9-32H159.7z" p-id="6551"></path></svg>