<?xml version="1.0" standalone="no"?><!DOCTYPE svg PUBLIC "-//W3C//DTD SVG 1.1//EN" "http://www.w3.org/Graphics/SVG/1.1/DTD/svg11.dtd"><svg t="1619679564868" class="icon" viewBox="0 0 1024 1024" version="1.1" xmlns="http://www.w3.org/2000/svg" p-id="16159" xmlns:xlink="http://www.w3.org/1999/xlink" width="200" height="200"><defs><style type="text/css"></style></defs><path d="M518.704407 248.388887c22.972975 0 43.773207-9.312815 58.822284-24.361891 15.049076-15.049076 24.360029-35.847447 24.360029-58.820421 0-22.972975-9.310953-43.773207-24.360029-58.822284-15.049076-15.049076-35.849309-24.360029-58.822284-24.360029-22.972975 0-43.773207 9.310953-58.822283 24.360029-15.049076 15.049076-24.360029 35.849309-24.360029 58.822284 0 22.972975 9.310953 43.771345 24.360029 58.820421 15.049076 15.049076 35.849309 24.361891 58.822283 24.361891z m77.395782-5.788392c-19.807884 19.807884-47.176611 32.062371-77.395782 32.06237s-57.587898-12.254487-77.395782-32.06237c-19.807884-19.807884-32.060509-47.174749-32.060509-77.39392s12.252625-57.587898 32.060509-77.395782c19.807884-19.807884 47.176611-32.060509 77.395782-32.060509s57.587898 12.252625 77.395782 32.060509c19.807884 19.807884 32.060509 47.176611 32.060509 77.395782s-12.252625 57.586036-32.060509 77.39392z" p-id="16160"></path><path d="M505.567418 110.575244c0-7.253644 5.883345-13.136989 13.136989-13.136989s13.136989 5.883345 13.136989 13.136989v54.631331c0 7.253644-5.883345 13.136989-13.136989 13.136989s-13.136989-5.883345-13.136989-13.136989V110.575244z" p-id="16161"></path><path d="M464.073076 178.343564c-7.253644 0-13.136989-5.883345-13.136989-13.136989s5.883345-13.136989 13.136989-13.13699h54.631331c7.253644 0 13.136989 5.883345 13.136989 13.13699s-5.883345 13.136989-13.136989 13.136989h-54.631331z" p-id="16162"></path><path d="M619.415738 545.553687h-0.506414" p-id="16163"></path><path d="M310.221731 402.932829h403.556538v26.273978H310.221731zM310.221731 540.908451h403.556538v26.273978H310.221731zM310.221731 678.884073h403.556538v26.273978H310.221731z" p-id="16164"></path><path d="M692.345018 187.553978c-10.882327 0-19.705484-8.823156-19.705483-19.705483s8.823156-19.705484 19.705483-19.705484h109.095098c25.918371 0 49.470371 10.591884 66.528349 27.649862 17.05984 17.061702 27.649862 40.613702 27.649862 66.528349v579.50208c0 25.918371-10.591884 49.470371-27.649862 66.528349-17.057978 17.057978-40.609978 27.649862-66.528349 27.649862H221.938036c-25.918371 0-49.470371-10.591884-66.528349-27.649862-17.057978-17.057978-27.649862-40.609978-27.649862-66.528349V242.321222c0-25.918371 10.591884-49.470371 27.649862-66.528349 17.057978-17.057978 40.609978-27.649862 66.528349-27.649862h122.299113c10.882327 0 19.705484 8.823156 19.705484 19.705484s-8.823156 19.705484-19.705484 19.705483h-122.299113c-15.039767 0-28.729716 6.168204-38.664378 16.102866-9.934662 9.934662-16.102865 23.624611-16.102865 38.664378v579.50208c0 15.039767 6.168204 28.729716 16.102865 38.664378 9.934662 9.934662 23.624611 16.102865 38.664378 16.102865h579.50208c15.039767 0 28.729716-6.168204 38.664379-16.102865 9.934662-9.934662 16.102865-23.624611 16.102865-38.664378V242.321222c0-15.037905-6.168204-28.729716-16.102865-38.664378-9.934662-9.934662-23.624611-16.102865-38.664379-16.102866h-109.095098z" p-id="16165"></path></svg>